<?xml version="1.0" encoding="UTF-8"?>
<svg id="Camada_1" xmlns="http://www.w3.org/2000/svg" version="1.1" xmlns:xlink="http://www.w3.org/1999/xlink" viewBox="0 0 948.17 1064.49">
  <!-- Generator: Adobe Illustrator 30.3.0, SVG Export Plug-In . SVG Version: 2.1.3 Build 182)  -->
  <defs>
    <style>
      .st0 {
        fill: #1e67b1;
      }

      .st1 {
        fill: url(#Gradiente_sem_nome_202);
        stroke: #2e7fc2;
        stroke-miterlimit: 10;
        stroke-width: 2px;
      }

      .st2 {
        fill: url(#Gradiente_sem_nome_193);
      }

      .st3 {
        fill: #2e7fc2;
      }
    </style>
    <linearGradient id="Gradiente_sem_nome_202" data-name="Gradiente sem nome 202" x1="452.35" y1="989.47" x2="452.35" y2="121.61" gradientUnits="userSpaceOnUse">
      <stop offset="0" stop-color="#a9c0da"/>
      <stop offset="1" stop-color="#e6ecf3"/>
    </linearGradient>
    <linearGradient id="Gradiente_sem_nome_193" data-name="Gradiente sem nome 193" x1="474.09" y1="20.13" x2="474.09" y2="1044.36" gradientUnits="userSpaceOnUse">
      <stop offset="0" stop-color="#75b0e1"/>
      <stop offset="1" stop-color="#1762ad"/>
    </linearGradient>
  </defs>
  <path class="st3" d="M804.18,506.54c-15.08-12.66-31.75-19.41-49.98-20.25-13.75-.65-29.27,4.11-41.92,4.76-18.44,1-30.45.87-48.21-5.35-25.5-8.89-48.11-19.13-69.04-17.07-3.23.31-6.31.4-9.21.31-1.31-.03-1.71-1.8-.53-2.39,6.38-3.2,15.15-5.35,23.57-9.45,18.57-9.08,36.2-20.74,52.87-35.02,9.27-7.93,22.98-16.39,32.41-18.23,5.75-1.15,12.04-2.33,18.85-3.55,1.62-.28,3.23-.44,4.88-.4,19.69.28,37.73-3.48,54.18-11.32,10.54-5.04,20.62-14.46,30.17-28.3.03-.06.03-.16-.03-.22l-.56-.56c-.25-.25-.65-.25-.9.03-15.74,17.95-35.64,27.99-59.71,30.07-.93.09-1.87.06-2.8-.03-21.43-2.15-40.06-2.08-57.29,7.12-.87.47-1.93-.25-1.77-1.24.47-3.17,2.95-6.53,5.5-10.57,1.12-1.8,4.17-10.61,9.14-26.44,5.32-16.89,16.02-31.85,32.1-44.88,9.36-7.56,19.53-13.75,30.51-18.57.06-.03.09-.06.06-.12l-.62-2.67c-.03-.16-.19-.25-.37-.22-30.07,9.14-59.28,27.74-71.31,56.88-6.75,16.3-14.21,37.35-26.31,50.48-19.94,21.65-41.74,36.17-65.4,43.57-27.37,8.55-47.27,14.83-59.68,18.85-29.73,9.61-53.24,27.8-70.54,54.64-1.9,2.95-2.67,6.5-2.18,9.98,3.7,25.1,12.13,50.07,25.22,74.89.22.4.44.62.68.72.96.37,1.93-.53,1.62-1.49-3.2-10.57-4.63-20.43-4.35-29.55.03-1.03.19-1.99.44-2.95,2.77-10.85,4.6-17.79,5.54-20.74,4.14-13.03,12.28-24.6,24.48-34.77,33.68-28.08,82.82-29.73,124.5-17.7,27.59,7.96,40.9,22.42,56.26,43.91,19.66,27.56,47.43,41.67,83.35,42.39.34,0,.65-.25.72-.59s-.12-.68-.47-.81c-6.97-2.46-15.12-3.42-21.3-5.54-18.38-6.31-33.65-17.29-45.87-32.94-3.76-4.82-8.55-12.63-14.37-23.42-.65-1.21-1.46-2.36-2.36-3.42l-7.5-8.43c-.87-.99-.06-2.55,1.24-2.39,15.11,1.62,29.73.34,44.85-4.32,10.29-3.17,18.1-5.01,23.45-5.47,14.59-1.31,30.14,3.45,46.71,14.31.25.16.53.12.72-.06l.62-.62c.25-.25.22-.62-.03-.84ZM730.44,565.17s.06.03.06.06-.03.06-.06.06-.06-.03-.06-.06.03-.06.06-.06ZM721.02,558.39c3.51,2.24,5.38,3.45,5.57,3.61.68.68-.09,1.8-.96,1.43-2.3-1-4.04-2.49-5.19-4.45-.22-.4.22-.84.59-.59ZM707.11,545.08c2,2.36,3.33,4.47,2.98,4.77-.34.29-2.23-1.38-4.22-3.72-2-2.36-3.33-4.47-2.98-4.77.34-.29,2.23,1.38,4.22,3.72ZM335,459.11l-40.68-15.21c-15.92-8.55-28.89-20-38.91-34.27-1.74-2.46-5.88-11.51-12.38-27.09-5.35-12.78-9.86-21.58-13.56-26.4-13.31-17.48-33.46-27.8-53.9-34.24-.81-.25-1.4.81-.75,1.37,3.27,2.8,7.09,5.32,11.45,7.56,17.04,8.77,37.32,26.9,43.57,47.02,5.26,16.95,9.11,28.27,11.54,33.96-1.74,1.4-4.54,1.09-8.4-1-.81-.47-1.74-.72-2.67-.81-13.87-1.09-23.7-1.18-29.48-.28-9.3,1.52-16.02,1.96-20.15,1.34-13.96-2.12-28.24-8.37-42.83-18.78-.16-.09-.37-.06-.47.06l-.65.78c-.34.37-.31.96.06,1.34,15.18,15.02,39.68,28.8,61.67,27.06,14.31-1.12,29.27-.25,42.45,4.82,4.67,1.8,12.38,7.03,23.17,15.71,10.67,8.58,23.23,16.98,37.73,25.22,1.56.9,1.06,3.27-.75,3.42l-7.74.72c-1.4.12-2.77.4-4.11.84-16.36,5.38-28.8,10.42-37.35,15.18-6.53,3.64-12.35,5.82-17.42,6.47-14.46,1.87-28.27,1.31-41.36-1.68-1.59-.37-3.23-.5-4.85-.4-17.95,1.09-33.81,8.15-47.62,21.18-.12.12-.12.34.03.47l.87.75c.31.25.75.28,1.06.03,11.57-8.61,33.18-18.32,47.55-13.62,12.47,4.07,25.5,5.82,39.16,5.26.93-.03,1.52,1.03,1,1.8-4.39,6.56-7.9,13.78-10.54,21.58-8.83,25.97-21.09,37.45-44.26,49.45-.34.19-.5.59-.34.93s.53.53.9.44c19.31-5.5,34.58-15.8,45.75-30.95.81-1.12,1.49-2.3,2.08-3.55,5.23-11.29,8.8-18.6,10.76-21.93,14.06-24.01,37.63-32.34,64.94-34.93,11.85-1.12,22.55.75,32.16,5.6.59.31,1.31-.09,1.37-.78l2.74-33.12c.03-.56-.31-1.09-.84-1.31ZM216.82,547.19c.82-1.34,1.53-2.51,2.15-3.52-.62,1.01-1.33,2.18-2.15,3.52ZM219.71,545.91c.81-1.49,1.49-2.94,2.05-4.34-.56,1.4-1.24,2.85-2.05,4.34Z"/>
  <path class="st0" d="M702.89,541.36c.34-.29,2.23,1.38,4.22,3.72,2,2.36,3.33,4.47,2.98,4.77-.34.29-2.23-1.38-4.22-3.72-2-2.36-3.33-4.47-2.98-4.77h0Z"/>
  <path class="st0" d="M725.62,563.43c-2.3-1-4.04-2.49-5.19-4.45-.22-.4.22-.84.59-.59,3.51,2.24,5.38,3.45,5.57,3.61.68.68-.09,1.8-.96,1.43h0Z"/>
  <path class="st0" d="M730.5,565.23s-.03.06-.06.06-.06-.03-.06-.06.03-.06.06-.06.06.03.06.06h0Z"/>
  <path class="st1" d="M477.63,157.25l4.6-31.94c.19-1.18,1.43-1.9,2.55-1.4,9.58,4.29,13.78-1.06,21.83-1.46,14.03-.65,22.39-.93,25.16-.81,1.28.06,2.3,1.15,2.3,2.43v39.56c0,1.15-.96,2.08-2.11,2.02l-32.38-1.09c-1.65-.06-3.27-.44-4.79-1.12-4.14-1.9-9.02-2.95-14.68-3.17-1.56-.06-2.71-1.46-2.49-3.02ZM467.64,222.41l9.24-.65c1.56-.12,2.89,1.06,2.95,2.61.03,1.03-.37,2.36-1.24,4.07-.84,1.62.19,3.61,1.99,3.86l43.01,6.22c1.62.22,3.14-.81,3.48-2.39,3.73-16.14,6.03-32.84,6.94-50.1.06-.93-.65-1.74-1.59-1.8l-37.76-3.11c-1.4-.12-2.77.37-3.76,1.37l-2.15,2.18c-1.21,1.21-3.08,1.46-4.57.59l-5.35-3.08c-1.8-1.03-4.11-.19-4.79,1.77l-11.2,32.22c-1.12,3.2,1.4,6.5,4.79,6.25ZM441.39,290.39c1.28-1,3.14-.68,3.98.68,1.59,2.55,1.06,5.44-1.52,8.68-.75.96-.78,2.27-.03,3.23,1.46,1.93,4.82,3.45,10.08,4.6,13.16,2.89,27.37,5.44,42.58,7.65,1.56.25,3.11-.59,3.79-2.02,7.68-16.14,14.52-34.34,20.59-54.61.34-1.12-.4-2.3-1.56-2.46l-45.97-6.66c-.78-.12-1.56.12-2.11.62-1.43,1.24-2.64,2.77-3.64,4.54-.87,1.56-3.02,1.8-4.2.5-3.48-3.79-7.06-6.22-10.7-7.31-2.05-.59-4.23.25-5.29,2.08l-20.03,34.71c-.93,1.59-.5,3.61.96,4.7,4.95,3.67,9.3,4.01,13.06,1.06ZM399.59,372.93c3.17-.81,5.91,2.39,4.6,5.41l-2.67,6.16c-1.06,2.46,0,5.35,2.39,6.5,3.14,1.52,6.53,2.55,10.2,3.02,20.28,2.64,35.24,4.7,44.88,6.16,2.08.31,4.14-.81,4.98-2.77l25.53-58.81c.87-2.05-.5-4.35-2.74-4.54-16.3-1.4-32.84-4.79-49.64-10.17-1.09-.34-2.3-.19-3.27.44-2.77,1.8-5.23,4.6-7.43,8.37-.93,1.62-3.14,1.9-4.45.59l-8.02-8.06c-2.33-2.33-5.97-2.64-8.65-.78-1.83,1.28-3.79,3.7-5.85,7.22-7.46,12.78-13.75,24.63-18.88,35.55-.47,1-.5,2.11-.09,3.14,3.14,7.68,11.66,4.45,19.1,2.58ZM349.09,472.33c6.59,3.98,12.35,1.21,19.5-1.96,2.58-1.15,5.47.75,5.47,3.55v12c0,2.55,1.8,4.7,4.29,5.13,7.28,1.28,13.93,1.62,20,1.03,15.49-1.49,29.42-1.99,41.8-1.46,3.58.12,6.56-2.61,6.75-6.16.9-19.19,4.2-39.34,9.86-60.4.87-3.27-1.83-6.41-5.19-6-20.71,2.52-36.64-1.03-57.13-5.72-1.49-.34-3.02.31-3.79,1.65l-5.94,10.26c-.72,1.24-2.43,1.4-3.36.31-6.75-7.87-16.89-19.78-23.08-2.83-5.38,14.71-9.39,29.39-11.97,44.04-.53,2.95.4,5.16,2.8,6.56ZM371.82,576.71c3.11-3.48,8.86-1.93,9.83,2.64l2.52,11.91c.59,2.71,2.77,4.73,5.47,5.13,12.81,1.87,31.1-4.7,56.51-11.32,5.38-1.4,9.92-2.95,13.65-4.67,1.93-.84,2.83-3.08,2.08-5.04-8.05-21.37-12.56-42.33-13.47-62.82-.09-2.24-2.33-3.76-4.45-3.02-18.57,6.56-39.37,8.27-62.42,5.16-4.01-.53-7.71,2.27-8.27,6.25l-1.09,7.46c-.28,2.02-2.52,3.11-4.26,2.08l-13.75-7.93c-.28-.16-.59-.28-.93-.34-9.42-1.49-13.9,3.27-12.97,11.94,1.9,17.95,3.86,32.9,5.82,44.88.16.93.47,1.84.87,2.67,2.99,5.85,8.71,6.9,17.14,3.14.44-.19.84-.47,1.15-.84l6.56-7.31ZM430.35,693.36c.84.62,1.83,1.03,2.86,1.15,5.01.65,12.56-.68,22.67-4.01,18.5-6.06,35.27-12.35,50.29-18.85,2.71-1.18,3.79-4.45,2.33-7l-37.23-64.47c-.81-1.4-2.64-1.84-3.98-.9-18.75,12.91-40.93,19.31-66.46,19.25-3.39,0-5.78,3.27-4.82,6.5l.81,2.67c1.43,4.73-3.27,9.02-7.84,7.15-3.83-1.59-8.8-2.99-14.93-4.23-3.67-.75-7.34,1.18-8.8,4.57-1.06,2.52-1,5.41.22,8.68,5.82,15.86,13.09,31.01,21.86,45.47,8.15,2.21,14.8-1.18,20-10.23,13.06-12.47,17.54,10.11,23.01,14.24ZM459.71,769.06c10.2-1.31,11.41,11.82,14.96,17.54.62,1.03,1.74,1.62,2.92,1.59,8.8-.22,13.25-.34,13.28-.34,14.65-2.86,27.77-5.97,39.44-9.3,8.43-2.39,16.58-2.55,24.07-6.28.81-.4,1.34-1.21,1.43-2.11.47-4.07.19-7.68-.81-10.89-7.25-23.29-16.11-44.44-26.56-63.41-1.06-1.96-2.55-4.14-4.45-6.56-.93-1.21-2.67-1.4-3.86-.44-21.3,17.48-44.35,23.39-70.97,26.87-3.64.5-5.82,4.17-4.14,7.03,1.09,1.8,1.59,3.08,1.52,3.79-.31,3.58-4.45,5.78-8.61,4.67-3.7-1-9.45-2.24-17.2-3.76-4.11-.81-8.15,1.56-9.45,5.5-.37,1.09.09,2.99,1.37,5.63,7.37,15.15,13.59,28.67,18.69,40.59.44,1.03,1.31,1.84,2.36,2.21,13.96,4.88,16.64-11.13,26-12.32ZM564.21,802c-.22-4.57-5.07-7.4-9.14-5.32-20.43,10.42-43.32,14.56-68.67,12.35-3.2-.28-5.88,2.43-5.54,5.63.44,4.11-.62,7.43-3.2,9.98-1.15,1.15-3.02,1.15-4.23.03-5.47-5.1-31.63-14.71-27.03,4.42,2.67,11.04,3.95,20.46,3.79,28.27-.16,9.73,3.27,16.51,13.56,14.12.5-.09.96-.31,1.4-.62l8.49-6.16c3.73-2.71,8.93.22,8.55,4.82l-.84,10.23c-.16,1.9,1.09,3.64,2.95,4.11,12.91,3.23,25.44,4.57,37.66,3.98,1.68-.09,3.33.12,4.88.65,6.31,1.99,13.56,2.95,21.68,2.89,2.99-.03,5.57-2.02,6.34-4.88,7.62-27.49,10.73-55.67,9.33-84.5ZM539.42,912.96c-10.79.4-20.65,1.24-31.72-1.15-8.61-1.83-16.83-3.92-24.57-6.19-2.15-.65-4.48.06-5.91,1.8l-6.34,7.65c-.75.87-2.08.87-2.83,0-3.51-4.2-7.43-7.03-11.72-8.52-2.61-.93-5.5.12-6.9,2.52-2.33,4.01-3.67,9.11-3.95,15.27-.03.19-.06.37-.12.56l-8.68,24.94c-1.24,3.55,1.46,7.25,5.26,7.18l13.16-.28c2.39.87,3.2,2.52,2.39,4.95-.75,2.24-1.71,4.42-2.92,6.53-1.77,1.49-2.21,3.14-1.31,4.91.4.84,1.15,1.46,2.05,1.77l41.21,14.34c1.49.53,3.17.06,4.17-1.18,17.57-21.58,31.88-44.54,42.92-68.89,1.37-2.99-.9-6.34-4.17-6.22Z"/>
  <path class="st2" d="M936.17,450.25c-.44,26.12-2.55,54.61-6.34,85.46-3.83,31.07-9.05,59.12-15.61,84.13-31.63,120.17-96.66,219.79-195.12,298.88-37.1,29.83-72.06,53.15-104.84,69.98-9.52,4.88-20,10.57-31.47,17.04-.28.16-.65.09-.87-.19-.19-.28-.16-.65.09-.87,25.53-22.8,44.41-49.23,62.82-78.56,1.18-1.83,2.71-3.45,4.51-4.7,33.93-23.39,63.29-47.46,88.08-72.18,73.15-72.99,120.67-159.7,142.56-260.19,6.47-29.67,11.1-60.4,13.87-92.21,1.77-20.28,2.71-51.35,2.74-93.21.03-40.99.06-82.01.09-123.03l.37-76.69c0-1.87-1.03-3.58-2.64-4.45l-79.49-42.83c-44.5-22.7-90.41-42.17-137.71-58.41-61.36-21.05-124.43-33.96-189.25-38.78-.68-.06-1.24-.59-1.31-1.28l-2.99-36.54c-.09-.84.62-1.55,1.46-1.49,94.92,6.56,186.01,28.83,273.31,66.8,60.74,24.91,117.84,55.73,175.25,89.54,1.68,1,2.71,2.77,2.71,4.7l-.03,104.93c.28,84.31.22,139.02-.19,164.15ZM480.67,1010.99l-40.56-17.23c-.4-.16-.87-.22-1.31-.12l-5.19,1-23.42-12.07c-49.17-25.04-81.45-43.39-123.56-73.86-81.36-58.84-147.73-136.59-187.72-228.78-.03-.09-2.36-6.1-7.03-18.04-2.74-7.03-5.88-13.68-9.39-19.94-5.72-24.69-11.72-49.11-17.98-73.21-1.96-7.53-4.88-27.09-8.77-58.69-2.27-18.69-3.58-38.47-3.89-59.28-1.24-87.42-.37-179.45-.4-247.34,0-1.71.93-3.3,2.43-4.14,50.04-28.61,101.54-53.84,154.57-75.7,66.21-27.31,139.61-47.3,220.19-60.02,1.52-.22,16.42-1.59,44.69-4.07.75-.06,1.34-.72,1.34-1.46V21.62c0-.84-.72-1.49-1.56-1.4l-35.11,3.76C285.77,41.96,144.88,98.04,14.32,177.5c-2.43,1.46-3.2,3.51-2.33,6.13-.09,88.33.25,176.15,1.03,263.52.4,45.28,4.07,86.68,11.07,124.15,5.41,29.02,14.28,60.68,26.59,94.98,27.59,75.08,69.07,141.26,124.4,198.51,58.22,60.24,130.19,109.57,205.2,146.42l24.63,11.79,48.05,21.15c1.06.47,2.27.16,2.99-.72l25.22-30.42c.56-.65.31-1.68-.5-2.02Z"/>
</svg>