<?xml version="1.0" encoding="UTF-8"?>
<svg id="Camada_1" xmlns="http://www.w3.org/2000/svg" version="1.1" viewBox="0 0 932.38 360.77">
  <!-- Generator: Adobe Illustrator 30.3.0, SVG Export Plug-In . SVG Version: 2.1.3 Build 182)  -->
  <defs>
    <style>
      .st0 {
        fill: #fff;
      }
    </style>
  </defs>
  <path class="st0" d="M789.21,83.15c0,4.11-3.33,7.44-7.44,7.44s-7.44-3.33-7.44-7.44,3.33-7.44,7.44-7.44,7.44,3.33,7.44,7.44h0Z"/>
  <path class="st0" d="M466.73,163.29c0,.17-.14.31-.31.31h-10.8c-.17,0-.31-.14-.31-.31v-86.52c0-.17.14-.31.31-.31h10.8c.17,0,.31.14.31.31v86.52h0Z"/>
  <path class="st0" d="M375.34,163.7c-.2,0-.37-.16-.37-.36v-84.83c0-.17.13-.3.3-.3,8.55.03,20.87.04,36.95.05,2.65,0,5.83.64,9.55,1.93,6.75,2.33,11.21,6.72,13.36,13.16,3.22,9.6-.24,20.36-9.59,24.89-.32.16-.29.63.05.73,5.8,1.76,10.08,5.11,12.85,10.06,2.77,4.97,3.43,10.34,1.98,16.11-3.24,12.96-15.3,18.81-28.57,18.58-4.94-.08-17.11-.09-36.51-.02M386.9,88.87v25.24c0,.23.19.42.42.42h23.06c7.65,0,13.86-5.44,13.86-12.15v-1.78c0-6.71-6.21-12.15-13.86-12.15h-23.06c-.23,0-.42.19-.42.42M387,124.95l-.14,27.62c0,.22.17.39.39.39l26.19.14c8.5.04,15.43-6,15.47-13.5v-1.24c.04-7.5-6.82-13.62-15.33-13.66l-26.19-.14c-.21,0-.39.17-.39.39h0Z"/>
  <path class="st0" d="M513.05,100.5c20.84.26,35.56,18.29,31.32,38.86-3.27,15.92-16.19,25.69-32.13,25.49s-28.61-10.29-31.49-26.29c-3.71-20.67,11.46-38.33,32.3-38.06M512.64,110.57c-11.55,0-20.92,9.92-20.92,22.15s9.37,22.15,20.92,22.15,20.92-9.92,20.92-22.15-9.37-22.15-20.92-22.15h0Z"/>
  <path class="st0" d="M760.77,152.02s.05.09.02.13c-5.23,6.89-11.97,10.99-20.23,12.3-20.04,3.18-36.45-9.28-37.95-29.85-1.62-22.35,17.55-37.97,38.97-33.09,11.43,2.6,19.68,12.5,21.22,23.81.38,2.78.45,6.16.21,10.14-.01.19-.16.34-.35.34h-47.51c-.28,0-.5.23-.49.5.55,20.08,27.25,24.27,37.72,9.84.26-.36.77-.43,1.12-.14l7.27,6.02M751.19,126.95c.21,0,.38-.19.36-.4-1.34-13.25-14.52-19.89-26.23-14.33-5.91,2.81-9.49,7.42-10.72,13.82-.09.47.28.91.76.91h35.83,0Z"/>
  <path class="st0" d="M864.71,132.74c0,17.91-14.52,32.43-32.43,32.43s-32.43-14.52-32.43-32.43,14.52-32.43,32.43-32.43,32.43,14.52,32.43,32.43M832.82,110.63c-11.54-.29-21.14,9.39-21.43,21.61-.3,12.22,8.81,22.35,20.35,22.63,11.54.29,21.14-9.39,21.43-21.61.3-12.22-8.81-22.35-20.35-22.63h0Z"/>
  <path class="st0" d="M872.16,152.49l6.42-6.43c.31-.31.82-.28,1.1.06.76.93,1.51,2.22,2.06,2.77,4.75,4.73,10.44,6.79,17.07,6.18,5.99-.56,11.2-3.43,9.84-10.17-.74-3.68-5.24-5.83-8.48-6.65-5.4-1.37-9.59-2.5-12.57-3.39-8.1-2.4-13.93-8.94-13.03-17.69.88-8.45,6.6-13.63,14.42-15.75,10.12-2.74,22.63.4,29.33,9.06.21.27.19.66-.06.91l-6.47,6.47c-.27.27-.71.22-.93-.09-4.31-6.13-10.32-8.48-18.05-7.05-3.54.66-6.76,2.76-7.13,6.51-.44,4.57,2.53,6.74,6.59,8.17,1.1.39,5.92,1.81,14.46,4.27,6.9,1.98,12.48,6.57,13.2,14.09,1.71,17.69-15.34,22.91-29.69,20.49-7.43-1.25-13.47-4.86-18.14-10.83-.22-.28-.2-.68.06-.93h0Z"/>
  <path class="st0" d="M606.13,110.6c.11.09.28,0,.28-.14v-7.88c0-.34.28-.61.62-.61h10.28c.38,0,.68.3.68.67v83.49c0,.36-.29.65-.65.65h-10.34c-.27,0-.48-.21-.48-.48v-31.58c0-.27-.34-.38-.5-.16-3.96,5.45-9.16,8.67-15.61,9.68-12.4,1.93-22.3-1.92-29.69-11.57-6.74-8.8-8.14-22.79-4-33.13,5.54-13.81,17.77-20.39,32.85-18.63,5.95.7,10.93,3.4,14.92,8.09.47.56,1.02,1.09,1.64,1.6M586.35,110.53c-11.42.08-20.6,10.05-20.52,22.26.09,12.22,9.41,22.06,20.82,21.98,11.42-.08,20.6-10.05,20.52-22.26-.09-12.22-9.41-22.06-20.82-21.98h0Z"/>
  <path class="st0" d="M678.58,155.26c0-.32-.42-.45-.6-.19-6.7,9.74-19.67,12.01-30.27,7.93-10.18-3.91-14.14-13.31-14.03-23.85.09-9.05.09-21.31-.01-36.79-.01-.25.19-.45.44-.45h10.62c.25,0,.45.2.46.44.15,6.89.19,17.9.1,33.05-.03,5.22.39,8.82,1.28,10.81,4.29,9.67,17.98,10.96,25.59,4.58,5.25-4.4,6.51-10.82,6.27-17.95-.03-.75-.02-10.91.01-30.5,0-.18.15-.32.33-.32h10.04c.51,0,.93.42.93.93v60.19c0,.29-.23.53-.52.53h-10.04c-.33,0-.6-.27-.6-.6v-7.81h0Z"/>
  <path class="st0" d="M787.45,163.25c0,.24-.2.44-.44.44h-10.46c-.24,0-.44-.2-.44-.44v-60.86c0-.24.2-.44.44-.44h10.46c.24,0,.44.2.44.44v60.86h0Z"/>
  <path class="st0" d="M261.74,172.76c-4.85-4.07-10.21-6.24-16.07-6.51-4.42-.21-9.41,1.32-13.48,1.53-5.93.32-9.79.28-15.5-1.72-8.2-2.86-15.47-6.15-22.2-5.49-1.04.1-2.03.13-2.96.1-.42,0-.55-.58-.17-.77,2.05-1.03,4.87-1.72,7.58-3.04,5.97-2.92,11.64-6.67,17-11.26,2.98-2.55,7.39-5.27,10.42-5.86,1.85-.37,3.87-.75,6.06-1.14.52-.09,1.04-.14,1.57-.13,6.33.09,12.13-1.12,17.42-3.64,3.39-1.62,6.63-4.65,9.7-9.1.01-.02.01-.05-.01-.07l-.18-.18c-.08-.08-.21-.08-.29,0-5.06,5.77-11.46,9-19.2,9.67-.3.03-.6.02-.9,0-6.89-.69-12.88-.67-18.42,2.29-.28.15-.62-.08-.57-.4.15-1.02.95-2.1,1.77-3.4.36-.58,1.34-3.41,2.94-8.5,1.71-5.43,5.15-10.24,10.32-14.43,3.01-2.43,6.28-4.42,9.81-5.97.02-.01.03-.02.02-.04l-.2-.86s-.06-.08-.12-.07c-9.67,2.94-19.06,8.92-22.93,18.29-2.17,5.24-4.57,12.01-8.46,16.23-6.41,6.96-13.42,11.63-21.03,14.01-8.8,2.75-15.2,4.77-19.19,6.06-9.56,3.09-17.12,8.94-22.68,17.57-.61.95-.86,2.09-.7,3.21,1.19,8.07,3.9,16.1,8.11,24.08.07.13.14.2.22.23.31.12.62-.17.52-.48-1.03-3.4-1.49-6.57-1.4-9.5,0-.33.06-.64.14-.95.89-3.49,1.48-5.72,1.78-6.67,1.33-4.19,3.95-7.91,7.87-11.18,10.83-9.03,26.63-9.56,40.03-5.69,8.87,2.56,13.15,7.21,18.09,14.12,6.32,8.86,15.25,13.4,26.8,13.63.11,0,.21-.08.23-.19s-.04-.22-.15-.26c-2.24-.79-4.86-1.1-6.85-1.78-5.91-2.03-10.82-5.56-14.75-10.59-1.21-1.55-2.75-4.06-4.62-7.53-.21-.39-.47-.76-.76-1.1l-2.41-2.71c-.28-.32-.02-.82.4-.77,4.86.52,9.56.11,14.42-1.39,3.31-1.02,5.82-1.61,7.54-1.76,4.69-.42,9.69,1.11,15.02,4.6.08.05.17.04.23-.02l.2-.2c.08-.08.07-.2-.01-.27h0ZM238.03,191.61s.02,0,.02.02,0,.02-.02.02-.02,0-.02-.02,0-.02.02-.02ZM235,189.43c1.13.72,1.73,1.11,1.79,1.16.22.22-.03.58-.31.46-.74-.32-1.3-.8-1.67-1.43-.07-.13.07-.27.19-.19h0ZM230.53,185.15c.64.76,1.07,1.44.96,1.53s-.72-.45-1.36-1.2c-.64-.76-1.07-1.44-.96-1.53s.72.45,1.36,1.2ZM110.88,157.51l-13.08-4.89c-5.12-2.75-9.29-6.43-12.51-11.02-.56-.79-1.89-3.7-3.98-8.71-1.72-4.11-3.17-6.94-4.36-8.49-4.28-5.62-10.76-8.94-17.33-11.01-.26-.08-.45.26-.24.44,1.05.9,2.28,1.71,3.68,2.43,5.48,2.82,12,8.65,14.01,15.12,1.69,5.45,2.93,9.09,3.71,10.92-.56.45-1.46.35-2.7-.32-.26-.15-.56-.23-.86-.26-4.46-.35-7.62-.38-9.48-.09-2.99.49-5.15.63-6.48.43-4.49-.68-9.08-2.69-13.77-6.04-.05-.03-.12-.02-.15.02l-.21.25c-.11.12-.1.31.02.43,4.88,4.83,12.76,9.26,19.83,8.7,4.6-.36,9.41-.08,13.65,1.55,1.5.58,3.98,2.26,7.45,5.05,3.43,2.76,7.47,5.46,12.13,8.11.5.29.34,1.05-.24,1.1l-2.49.23c-.45.04-.89.13-1.32.27-5.26,1.73-9.26,3.35-12.01,4.88-2.1,1.17-3.97,1.87-5.6,2.08-4.65.6-9.09.42-13.3-.54-.51-.12-1.04-.16-1.56-.13-5.77.35-10.87,2.62-15.31,6.81-.04.04-.04.11,0,.15l.28.24c.1.08.24.09.34,0,3.72-2.77,10.67-5.89,15.29-4.38,4.01,1.31,8.2,1.87,12.59,1.69.3,0,.49.33.32.58-1.41,2.11-2.54,4.43-3.39,6.94-2.84,8.35-6.78,12.04-14.23,15.9-.11.06-.16.19-.11.3s.17.17.29.14c6.21-1.77,11.12-5.08,14.71-9.95.26-.36.48-.74.67-1.14,1.68-3.63,2.83-5.98,3.46-7.05,4.52-7.72,12.1-10.4,20.88-11.23,3.81-.36,7.25.24,10.34,1.8.19.1.42-.03.44-.25l.88-10.65c.01-.18-.1-.35-.27-.42h0ZM72.88,185.83c.26-.43.49-.81.69-1.13-.2.32-.43.7-.69,1.13ZM73.81,185.42c.26-.48.48-.95.66-1.4-.18.45-.4.92-.66,1.4Z"/>
  <path class="st0" d="M229.17,183.96c.11-.09.72.45,1.36,1.2.64.76,1.07,1.44.96,1.53s-.72-.45-1.36-1.2c-.64-.76-1.07-1.44-.96-1.53h0Z"/>
  <path class="st0" d="M236.48,191.05c-.74-.32-1.3-.8-1.67-1.43-.07-.13.07-.27.19-.19,1.13.72,1.73,1.11,1.79,1.16.22.22-.03.58-.31.46h0Z"/>
  <path class="st0" d="M238.05,191.63s0,.02-.02.02-.02,0-.02-.02,0-.02.02-.02.02,0,.02.02h0Z"/>
  <path class="st0" d="M417.39,222.86v-28.85c0-.3.24-.54.54-.54h9.21c.24,0,.43.19.43.42v76.11c0,.19-.16.35-.36.35h-9.16c-.3,0-.54-.24-.54-.53v-7.46c0-.33-.44-.45-.61-.17-2.44,3.93-6.26,6.96-10.69,8.07-14.07,3.53-25.07-2.06-31.26-14.52-1.43-2.88-2.25-6.29-2.44-10.24-.53-10.9,2.65-20.17,11.59-26.44,10.3-7.22,24.27-6.39,32.61,4.04.23.28.68.12.68-.24M399.9,223.36c-9.8.17-17.59,9.08-17.4,19.9s8.29,19.45,18.08,19.28c9.8-.17,17.59-9.08,17.4-19.9-.19-10.82-8.29-19.45-18.08-19.28h0Z"/>
  <path class="st0" d="M527.6,194.43c0-.22.17-.39.39-.39h29.23c20.5,0,37.12,16.31,37.12,36.44v3.54c0,20.13-16.62,36.44-37.12,36.44h-29.23c-.22,0-.39-.17-.39-.39v-75.64M538.46,204.57l.2,55.28c0,.37.3.68.68.68l16.84-.06c14.89-.06,26.92-12.04,26.87-26.78l-.02-3.28c-.05-14.73-12.16-26.64-27.05-26.58l-16.84.06c-.37,0-.68.3-.68.68h0Z"/>
  <path class="st0" d="M603.63,242.61c.17-15.92,13.43-28.69,29.62-28.52s29.19,13.22,29.02,29.14-13.43,28.69-29.62,28.52c-16.19-.17-29.19-13.22-29.02-29.14M632.66,223.47c-10.35.15-18.61,8.99-18.46,19.75.15,10.76,8.66,19.37,19,19.23,10.35-.15,18.61-8.99,18.46-19.75-.15-10.76-8.66-19.37-19-19.23h0Z"/>
  <path class="st0" d="M483.6,270.46h-6.75c-.76,0-1.37-.62-1.37-1.38v-5.17c0-.38-.49-.54-.71-.23-5.33,7.45-15.29,9.09-23.85,6.77-6.61-1.79-10.38-6.36-11.5-13.11-2.12-12.68,8.54-18.71,19.6-19.66,4.53-.39,9.71-.45,15.53-.2.31.02.56-.22.57-.53.01-7.01-1.49-12.22-9.57-13.33-7.48-1.03-13.11,1.17-16.89,6.6-.19.28-.59.34-.85.12l-6.15-5.1c-.28-.23-.31-.64-.07-.91,6.63-7.46,14.64-10.74,24.03-9.84,5.72.55,10.23,2.38,13.54,5.47,5.15,4.81,6.19,10.77,6.15,18.2-.05,6.53-.04,16.71.02,30.56.01.96-.77,1.74-1.73,1.74M475.22,245.8c0-.3-.24-.54-.54-.55-2.88-.08-7.02-.1-12.42-.05-2.28.02-4.73.48-7.35,1.38-3.89,1.34-5.79,3.94-5.71,7.8.2,9.8,11.52,10.04,18.21,7.18,4.07-1.74,6.66-4.66,7.77-8.76.03-.11.04-.23.04-.34v-6.66h0Z"/>
  <path class="st0" d="M684.2,223.99c0,.39.52.53.71.19,3.9-6.97,9.94-10.14,18.11-9.5.49.04.87.45.87.94v8.83c0,.44-.4.76-.82.68-7.88-1.53-14.4,2.11-17.47,9.44-.73,1.74-1.08,4.61-1.06,8.62.06,11.89.04,20.75-.06,26.56-.01.35-.29.62-.63.62h-9.47c-.34,0-.62-.27-.62-.61v-53.81c0-.33.26-.59.59-.59h9.2c.36,0,.65.29.65.65v7.98h0Z"/>
  <path class="st0" d="M156.74,60.45l1.48-10.27c.06-.38.46-.61.82-.45,3.08,1.38,4.43-.34,7.02-.47,4.51-.21,7.2-.3,8.09-.26.41.02.74.37.74.78v12.72c0,.37-.31.67-.68.65l-10.41-.35c-.53-.02-1.05-.14-1.54-.36-1.33-.61-2.9-.95-4.72-1.02-.5-.02-.87-.47-.8-.97h0ZM153.53,81.4l2.97-.21c.5-.04.93.34.95.84,0,.33-.12.76-.4,1.31-.27.52.06,1.16.64,1.24l13.83,2c.52.07,1.01-.26,1.12-.77,1.2-5.19,1.94-10.56,2.23-16.11.02-.3-.21-.56-.51-.58l-12.14-1c-.45-.04-.89.12-1.21.44l-.69.7c-.39.39-.99.47-1.47.19l-1.72-.99c-.58-.33-1.32-.06-1.54.57l-3.6,10.36c-.36,1.03.45,2.09,1.54,2.01h0ZM145.09,103.26c.41-.32,1.01-.22,1.28.22.51.82.34,1.75-.49,2.79-.24.31-.25.73,0,1.04.47.62,1.55,1.11,3.24,1.48,4.23.93,8.8,1.75,13.69,2.46.5.08,1-.19,1.22-.65,2.47-5.19,4.67-11.04,6.62-17.56.11-.36-.13-.74-.5-.79l-14.78-2.14c-.25-.04-.5.04-.68.2-.46.4-.85.89-1.17,1.46-.28.5-.97.58-1.35.16-1.12-1.22-2.27-2-3.44-2.35-.66-.19-1.36.08-1.7.67l-6.44,11.16c-.3.51-.16,1.16.31,1.51,1.59,1.18,2.99,1.29,4.2.34ZM131.65,129.8c1.02-.26,1.9.77,1.48,1.74l-.86,1.98c-.34.79,0,1.72.77,2.09,1.01.49,2.1.82,3.28.97,6.52.85,11.33,1.51,14.43,1.98.67.1,1.33-.26,1.6-.89l8.21-18.91c.28-.66-.16-1.4-.88-1.46-5.24-.45-10.56-1.54-15.96-3.27-.35-.11-.74-.06-1.05.14-.89.58-1.68,1.48-2.39,2.69-.3.52-1.01.61-1.43.19l-2.58-2.59c-.75-.75-1.92-.85-2.78-.25-.59.41-1.22,1.19-1.88,2.32-2.4,4.11-4.42,7.92-6.07,11.43-.15.32-.16.68-.03,1.01,1.01,2.47,3.75,1.43,6.14.83h0ZM115.41,161.76c2.12,1.28,3.97.39,6.27-.63.83-.37,1.76.24,1.76,1.14v3.86c0,.82.58,1.51,1.38,1.65,2.34.41,4.48.52,6.43.33,4.98-.48,9.46-.64,13.44-.47,1.15.04,2.11-.84,2.17-1.98.29-6.17,1.35-12.65,3.17-19.42.28-1.05-.59-2.06-1.67-1.93-6.66.81-11.78-.33-18.37-1.84-.48-.11-.97.1-1.22.53l-1.91,3.3c-.23.4-.78.45-1.08.1-2.17-2.53-5.43-6.36-7.42-.91-1.73,4.73-3.02,9.45-3.85,14.16-.17.95.13,1.66.9,2.11h0ZM122.72,195.32c1-1.12,2.85-.62,3.16.85l.81,3.83c.19.87.89,1.52,1.76,1.65,4.12.6,10-1.51,18.17-3.64,1.73-.45,3.19-.95,4.39-1.5.62-.27.91-.99.67-1.62-2.59-6.87-4.04-13.61-4.33-20.2-.03-.72-.75-1.21-1.43-.97-5.97,2.11-12.66,2.66-20.07,1.66-1.29-.17-2.48.73-2.66,2.01l-.35,2.4c-.09.65-.81,1-1.37.67l-4.42-2.55c-.09-.05-.19-.09-.3-.11-3.03-.48-4.47,1.05-4.17,3.84.61,5.77,1.24,10.58,1.87,14.43.05.3.15.59.28.86.96,1.88,2.8,2.22,5.51,1.01.14-.06.27-.15.37-.27l2.11-2.35h0ZM141.54,232.83c.27.2.59.33.92.37,1.61.21,4.04-.22,7.29-1.29,5.95-1.95,11.34-3.97,16.17-6.06.87-.38,1.22-1.43.75-2.25l-11.97-20.73c-.26-.45-.85-.59-1.28-.29-6.03,4.15-13.16,6.21-21.37,6.19-1.09,0-1.86,1.05-1.55,2.09l.26.86c.46,1.52-1.05,2.9-2.52,2.3-1.23-.51-2.83-.96-4.8-1.36-1.18-.24-2.36.38-2.83,1.47-.34.81-.32,1.74.07,2.79,1.87,5.1,4.21,9.97,7.03,14.62,2.62.71,4.76-.38,6.43-3.29,4.2-4.01,5.64,3.25,7.4,4.58h0ZM150.98,257.17c3.28-.42,3.67,3.8,4.81,5.64.2.33.56.52.94.51,2.83-.07,4.26-.11,4.27-.11,4.71-.92,8.93-1.92,12.68-2.99,2.71-.77,5.33-.82,7.74-2.02.26-.13.43-.39.46-.68.15-1.31.06-2.47-.26-3.5-2.33-7.49-5.18-14.29-8.54-20.39-.34-.63-.82-1.33-1.43-2.11-.3-.39-.86-.45-1.24-.14-6.85,5.62-14.26,7.52-22.82,8.64-1.17.16-1.87,1.34-1.33,2.26.35.58.51.99.49,1.22-.1,1.15-1.43,1.86-2.77,1.5-1.19-.32-3.04-.72-5.53-1.21-1.32-.26-2.62.5-3.04,1.77-.12.35.03.96.44,1.81,2.37,4.87,4.37,9.22,6.01,13.05.14.33.42.59.76.71,4.49,1.57,5.35-3.58,8.36-3.96h0ZM184.58,267.76c-.07-1.47-1.63-2.38-2.94-1.71-6.57,3.35-13.93,4.68-22.08,3.97-1.03-.09-1.89.78-1.78,1.81.14,1.32-.2,2.39-1.03,3.21-.37.37-.97.37-1.36.01-1.76-1.64-10.17-4.73-8.69,1.42.86,3.55,1.27,6.58,1.22,9.09-.05,3.13,1.05,5.31,4.36,4.54.16-.03.31-.1.45-.2l2.73-1.98c1.2-.87,2.87.07,2.75,1.55l-.27,3.29c-.05.61.35,1.17.95,1.32,4.15,1.04,8.18,1.47,12.11,1.28.54-.03,1.07.04,1.57.21,2.03.64,4.36.95,6.97.93.96-.01,1.79-.65,2.04-1.57,2.45-8.84,3.45-17.9,3-27.17h0ZM176.61,303.44c-3.47.13-6.64.4-10.2-.37-2.77-.59-5.41-1.26-7.9-1.99-.69-.21-1.44.02-1.9.58l-2.04,2.46c-.24.28-.67.28-.91,0-1.13-1.35-2.39-2.26-3.77-2.74-.84-.3-1.77.04-2.22.81-.75,1.29-1.18,2.93-1.27,4.91,0,.06-.02.12-.04.18l-2.79,8.02c-.4,1.14.47,2.33,1.69,2.31l4.23-.09c.77.28,1.03.81.77,1.59-.24.72-.55,1.42-.94,2.1-.57.48-.71,1.01-.42,1.58.13.27.37.47.66.57l13.25,4.61c.48.17,1.02.02,1.34-.38,5.65-6.94,10.25-14.32,13.8-22.15.44-.96-.29-2.04-1.34-2h0Z"/>
  <path class="st0" d="M572.14,304.66c.36.41-.22,1.5-1.28,2.43-1.07.93-2.22,1.37-2.58.96-.36-.41.22-1.5,1.28-2.43,1.07-.93,2.22-1.37,2.58-.96h0Z"/>
  <path class="st0" d="M376.78,317.46c-.03,1.62.25,2.81.85,3.57,2.55,3.23,5.42,3.53,8.62.88.33-.27.81-.25,1.11.05l.52.52c.32.32.31.85-.02,1.16-1.68,1.55-3.78,2.21-6.3,2-4.7-.4-7.46-3.68-7.38-8.23.08-4.55,2.94-7.73,7.66-7.96,2.52-.13,4.6.61,6.23,2.21.32.32.31.85-.02,1.16l-.54.5c-.31.29-.79.3-1.11.01-3.11-2.75-5.99-2.56-8.65.59-.62.74-.95,1.92-.97,3.54h0Z"/>
  <path class="st0" d="M406.46,323.59c1.83,0,3.2-.89,4.1-2.66.09-.17.13-.36.13-.55v-10.32c0-.31.25-.56.56-.56h1.04c.36,0,.65.3.64.66-.13,4.01-.17,7.02-.12,9.02.12,4.28-2.24,6.52-6.35,6.52s-6.47-2.23-6.36-6.52c.05-2,.01-5-.13-9.02,0-.36.28-.66.64-.66h1.04c.31,0,.56.25.56.56v10.32c0,.19.05.38.14.55.9,1.78,2.27,2.66,4.11,2.66h0Z"/>
  <path class="st0" d="M438.12,325.01c.2.27.01.65-.33.65h-1.64c-.42,0-.81-.22-1.02-.58l-3.08-5.31c-.12-.21-.34-.33-.57-.33h-2.7c-.39,0-.71.33-.71.72v5.01c0,.24-.19.45-.44.45h-1.17c-.34,0-.61-.27-.61-.61l-.03-14.82c0-.32.25-.58.56-.59,4.31-.11,10.65-1.06,11.35,3.83.4,2.75-.66,4.62-3.17,5.63-.3.12-.41.49-.22.75l3.78,5.2M428,312.12l.14,5.06c.01.26.22.46.47.45l3.41-.1c1.92-.05,3.44-1.39,3.39-2.98v-.2c-.05-1.6-1.64-2.85-3.55-2.79l-3.41.09c-.26.01-.46.22-.45.47h0Z"/>
  <path class="st0" d="M460.15,312.63c-.27.49-.96.56-1.32.12-1.45-1.75-5.83-1.84-6.58.79-.23.82.26,1.66,1.09,1.86,1.89.43,3.73,1.12,5.52,2.05,3.38,1.77,3.25,6.53-.41,7.75-2.91.97-5.72.55-8.42-1.25-.41-.28-.5-.85-.18-1.23l.68-.82c.33-.4.95-.38,1.26.04,1.39,1.86,3.38,2.28,5.98,1.25.86-.34,1.36-1.27,1.19-2.22-.54-2.97-6.8-1.77-8.4-5.15-1.34-2.83.06-5.4,2.98-6.23,1.78-.51,3.77-.25,5.96.78,1.02.47,1.24,1.23.65,2.26h0Z"/>
  <path class="st0" d="M488.66,317.54c0,4.53-3.68,8.21-8.21,8.21s-8.21-3.68-8.21-8.21,3.68-8.21,8.21-8.21,8.21,3.68,8.21,8.21M480.64,311.47c-3.14-.14-5.81,2.5-5.95,5.9-.15,3.4,2.27,6.26,5.42,6.39,3.14.14,5.81-2.5,5.95-5.9.15-3.4-2.27-6.26-5.42-6.39h0Z"/>
  <path class="st0" d="M515.32,309.56c4.54-.03,10.94-1.03,10.95,5.57,0,4.94-4.58,4.72-9.02,4.65-.35,0-.64.28-.64.64v4.63c0,.31-.26.56-.57.56h-.65c-.41,0-.75-.34-.75-.75v-14.61c0-.38.3-.68.68-.69M516.57,311.88l.12,5.82c0,.13.11.24.24.23l3.95-.07c1.67-.03,3.01-1.18,2.98-2.56l-.02-1.3c-.03-1.38-1.41-2.47-3.08-2.44l-3.95.08c-.13,0-.24.11-.24.24h0Z"/>
  <path class="st0" d="M550.63,324.97c.2.27.01.65-.33.65h-1.63c-.42,0-.81-.22-1.02-.59l-3.05-5.29c-.12-.2-.33-.33-.57-.33h-2.68c-.39,0-.71.32-.71.71v4.98c0,.25-.2.45-.45.45h-1.17c-.33,0-.6-.27-.6-.61v-14.75c0-.32.25-.57.56-.58,4.29-.1,10.6-1.03,11.29,3.84.39,2.73-.67,4.6-3.17,5.59-.3.12-.41.49-.22.75l3.75,5.18M540.54,312.2l.14,4.96c.01.29.25.51.53.51l3.66-.11c1.75-.04,3.13-1.27,3.09-2.74l-.02-.68c-.04-1.47-1.49-2.62-3.23-2.57l-3.66.1c-.29.01-.52.25-.51.53h0Z"/>
  <path class="st0" d="M591.18,325.27v-13.23c0-.24-.19-.43-.43-.43h-4.53c-.24,0-.43-.19-.43-.43v-1.18c0-.24.19-.43.43-.43h12.28c.24,0,.43.19.43.43v1.16c0,.24-.19.43-.43.43h-4.61c-.24,0-.43.19-.43.43v13.25c0,.24-.19.43-.43.43h-1.42c-.24,0-.43-.19-.43-.43h0Z"/>
  <path class="st0" d="M612.84,325.21c0,.17-.14.32-.32.32h-1.62c-.17,0-.32-.14-.32-.32l-.03-15.36c0-.17.14-.32.32-.32h1.62c.17,0,.32.14.32.32l.03,15.36h0Z"/>
  <path class="st0" d="M627.57,317.55c0,4.3,3.43,6.83,7.48,5.94.96-.21,1.72-.72,2.28-1.53.24-.34.73-.41,1.05-.14l.47.38c.45.38.45,1.07,0,1.44-4.65,3.76-10.53,2.35-12.93-2.68-.15-.32-.25-.66-.28-1.01-.08-.82-.12-1.62-.12-2.4s.04-1.59.12-2.4c.04-.35.13-.7.28-1.01,2.41-5.03,8.29-6.43,12.94-2.67.45.37.46,1.07.01,1.44l-.47.38c-.33.27-.81.21-1.05-.14-.56-.81-1.32-1.33-2.28-1.54-4.05-.89-7.49,1.64-7.49,5.94h-.01Z"/>
  <path class="st0" d="M666.26,318.43c0,3.98-3.23,7.21-7.21,7.21h-1.42c-3.98,0-7.21-3.23-7.21-7.21v-1.72c0-3.98,3.23-7.21,7.21-7.21h1.42c3.98,0,7.21,3.23,7.21,7.21v1.72M657.5,311.4c-3.13.35-5.36,3.39-4.97,6.8.38,3.4,3.22,5.87,6.36,5.53,3.13-.35,5.36-3.39,4.97-6.8-.38-3.4-3.22-5.87-6.36-5.53h0Z"/>
  <path class="st0" d="M735.56,309.59c.45,0,.84.1,1.16.31.08.06.14.13.18.22l6.35,14.98c.11.27-.08.56-.37.56h-1.15c-.37,0-.71-.22-.86-.57l-1.19-2.82c-.15-.35-.5-.58-.88-.58h-3.21c-1.74,0-2.81.01-3.2.01-.39.01-.73.24-.88.59l-1.17,2.83c-.15.35-.48.57-.86.58h-1.15c-.28.01-.48-.28-.37-.55l6.24-15.03c.04-.09.1-.16.18-.22.31-.21.71-.32,1.18-.32M738.67,319.7l-2.8-6.62c-.15-.35-.66-.34-.78.02l-2.14,6.16c-.09.26.1.53.38.53h5.28s.08-.05.06-.09h0Z"/>
  <path class="st0" d="M759.53,322.54s.02-.01.03-.01c.02,0,.03-.01.04-.03l4.76-12.42c.13-.35.47-.59.85-.59h1.39c.4,0,.67.42.51.79l-6.51,14.99c-.09.2-.27.33-.48.34-.15.01-.34.01-.58.01s-.43,0-.58-.01c-.21,0-.4-.14-.48-.33l-6.61-14.95c-.16-.37.1-.79.51-.79h1.39c.38-.02.72.22.85.57l4.84,12.39s.02.03.04.03c.01,0,.02.01.03.01h0Z"/>
  <path class="st0" d="M783.48,321.61h-3.21c-.39,0-.74.23-.89.58l-1.19,2.83c-.15.35-.49.57-.86.57h-1.15c-.29.01-.48-.29-.37-.55l6.34-15.03c.04-.08.1-.16.18-.22.32-.21.71-.31,1.17-.31s.86.11,1.17.32c.09.06.15.13.19.22l6.27,15.05c.11.27-.09.56-.37.56h-1.15c-.38,0-.71-.24-.86-.59l-1.18-2.83c-.15-.35-.5-.58-.88-.59-.39,0-1.46-.01-3.21-.01M783.58,319.76c1.53,0,2.37-.02,2.53-.02.3-.01.5-.31.38-.59l-2.68-6.43c-.03-.07-.09-.13-.16-.16-.06-.02-.09-.03-.11-.03s-.06.01-.11.04c-.07.03-.13.08-.16.15l-2.61,6.46c-.11.28.09.59.39.59.16,0,1,0,2.53-.01h0Z"/>
  <path class="st0" d="M805,313.36l.16,11.57c.01.4-.32.73-.72.73h-.9c-.36,0-.65-.29-.65-.65v-14.43c0-1.27,1.63-1.8,2.38-.77l8.18,11.28c.15.21.47.1.47-.16v-10.93c0-.29.23-.52.52-.52h1.24c.23,0,.41.18.41.41v14.96c0,1.17-1.49,1.65-2.18.71l-8.86-12.22s-.05-.01-.05.02h0Z"/>
  <path class="st0" d="M837.39,325.73c-.5.02-.6.72-.13.88.59.21,1.02.5,1.27.89.23.35.19.81-.11,1.36-.66,1.22-1.89,1.67-3.7,1.34-.76-.14-.77-1.23-.01-1.37.13-.03.72-.04,1.77-.04.2,0,.36-.14.4-.33.03-.19-.08-.38-.26-.45-.93-.33-1.34-.9-1.24-1.71.05-.44-.25-.85-.69-.93-3.24-.55-5.2-2.64-5.89-6.26-1.57-8.25,7.57-12.89,13.6-7.54.34.3.35.82.03,1.14l-.59.59c-.31.31-.81.31-1.11,0-2-2.02-4.23-2.41-6.69-1.16-5.91,3-3.36,13.03,4.27,11.46.93-.19,1.67-.69,2.22-1.5.36-.53,1.1-.61,1.57-.18.84.77.95,1.4.33,1.91-1.46,1.19-3.14,1.82-5.04,1.9h0Z"/>
  <path class="st0" d="M860.84,321.65h-3.2c-.38.01-.73.24-.88.59l-1.18,2.81c-.15.35-.48.57-.85.57h-1.15c-.29,0-.48-.28-.37-.55l6.29-14.96c.04-.08.11-.16.19-.22.31-.21.7-.31,1.15-.31s.86.11,1.18.32c.08.05.14.13.18.22l6.26,14.97c.11.27-.09.56-.37.56h-1.15c-.37-.01-.7-.24-.85-.58l-1.18-2.82c-.15-.35-.49-.58-.88-.59-.39,0-1.45,0-3.19-.01M860.77,319.61c1.43.02,2.18.03,2.24.02.29-.02.48-.3.38-.57l-2.23-6.22c-.02-.06-.08-.11-.17-.13-.04-.01-.08-.02-.11-.02h-.11c-.09.03-.16.08-.18.13l-2.43,6.15c-.1.26.07.55.36.58.06,0,.81.02,2.25.05h0Z"/>
  <path class="st0" d="M921.57,317.55c0,4.55-3.68,8.23-8.23,8.23s-8.23-3.68-8.23-8.23,3.68-8.23,8.23-8.23,8.23,3.68,8.23,8.23M912.46,311.56c-3.11.45-5.24,3.54-4.75,6.91.48,3.37,3.4,5.74,6.51,5.29,3.11-.45,5.24-3.54,4.75-6.91-.48-3.37-3.4-5.74-6.51-5.29h0Z"/>
  <path class="st0" d="M569.13,321.59c-1.75,0-2.82.01-3.22.01-.38.01-.73.24-.88.6l-1.18,2.84c-.15.35-.49.58-.86.58h-1.15c-.29,0-.49-.28-.38-.55l6.27-15.11c.04-.09.11-.16.19-.22.31-.21.7-.32,1.16-.32s.87.1,1.19.31c.08.06.14.14.18.22l6.38,15.06c.11.27-.08.57-.37.57h-1.16c-.37,0-.71-.23-.86-.58l-1.2-2.83c-.15-.36-.5-.59-.89-.59s-1.46,0-3.22.01M572.04,319.04c-1.09-1.77-1.91-3.75-2.46-5.93-.11-.42-.7-.45-.84-.04l-2.1,6.05c-.1.29.12.59.43.59h4.6c.34,0,.55-.38.37-.67h0Z"/>
  <path class="st0" d="M702.52,317.53c.16.94-2.22,1.24-7.15.9-.39-.03-.73.29-.73.69v3.9c0,.32.26.58.58.58h7.44c.43,0,.78.36.77.79v.32c-.02.4-.34.72-.74.72h-9.56c-.36,0-.65-.29-.66-.65,0-.61-.02-3.02-.03-7.23-.01-4.21,0-6.62.01-7.23,0-.36.29-.65.65-.65l9.56-.04c.4,0,.73.32.74.72v.32c.02.44-.33.79-.76.79l-7.44.03c-.32,0-.58.26-.58.58v3.9c.02.4.35.72.75.69,4.92-.36,7.31-.06,7.15.87h0Z"/>
  <path class="st0" d="M880.11,310.03c0-.23.19-.43.43-.43l5.91-.06c4.3-.05,7.83,3.36,7.88,7.62v.64c.05,4.25-3.41,7.73-7.72,7.78l-5.91.06c-.23,0-.43-.19-.43-.43l-.16-15.18M882.43,312.26l.04,10.68c0,.32.26.59.59.58h3.27c2.97-.02,5.37-2.46,5.36-5.47v-.98c0-3-2.43-5.43-5.4-5.42h-3.27c-.33.02-.59.28-.59.61h0Z"/>
  <path class="st0" d="M304.18,154.66c-.14,8.4-.82,17.56-2.04,27.48-1.23,9.99-2.91,19.01-5.02,27.05-10.17,38.64-31.08,70.67-62.74,96.1-11.93,9.59-23.17,17.09-33.71,22.5-3.06,1.57-6.43,3.4-10.12,5.48-.09.05-.21.03-.28-.06-.06-.09-.05-.21.03-.28,8.21-7.33,14.28-15.83,20.2-25.26.38-.59.87-1.11,1.45-1.51,10.91-7.52,20.35-15.26,28.32-23.21,23.52-23.47,38.8-51.35,45.84-83.66,2.08-9.54,3.57-19.42,4.46-29.65.57-6.52.87-16.51.88-29.97.01-13.18.02-26.37.03-39.56l.12-24.66c0-.6-.33-1.15-.85-1.43l-25.56-13.77c-14.31-7.3-29.07-13.56-44.28-18.78-19.73-6.77-40.01-10.92-60.85-12.47-.22-.02-.4-.19-.42-.41l-.96-11.75c-.03-.27.2-.5.47-.48,30.52,2.11,59.81,9.27,87.88,21.48,19.53,8.01,37.89,17.92,56.35,28.79.54.32.87.89.87,1.51v33.74c.08,27.11.06,44.7-.07,52.78h0ZM157.72,334.96l-13.04-5.54c-.13-.05-.28-.07-.42-.04l-1.67.32-7.53-3.88c-15.81-8.05-26.19-13.95-39.73-23.75-26.16-18.92-47.5-43.92-60.36-73.56,0-.03-.76-1.96-2.26-5.8-.88-2.26-1.89-4.4-3.02-6.41-1.84-7.94-3.77-15.79-5.78-23.54-.63-2.42-1.57-8.71-2.82-18.87-.73-6.01-1.15-12.37-1.25-19.06-.4-28.11-.12-57.7-.13-79.53,0-.55.3-1.06.78-1.33,16.09-9.2,32.65-17.31,49.7-24.34,21.29-8.78,44.89-15.21,70.8-19.3.49-.07,5.28-.51,14.37-1.31.24-.02.43-.23.43-.47v-11.71c0-.27-.23-.48-.5-.45l-11.29,1.21C95.05,23.38,49.75,41.41,7.77,66.96c-.78.47-1.03,1.13-.75,1.97-.03,28.4.08,56.64.33,84.73.13,14.56,1.31,27.87,3.56,39.92,1.74,9.33,4.59,19.51,8.55,30.54,8.87,24.14,22.21,45.42,40,63.83,18.72,19.37,41.86,35.23,65.98,47.08l7.92,3.79,15.45,6.8c.34.15.73.05.96-.23l8.11-9.78c.18-.21.1-.54-.16-.65h0Z"/>
</svg>